<svg width="245" height="70" viewBox="0 0 245 70" fill="none" xmlns="http://www.w3.org/2000/svg">
<g clip-path="url(#clip0_117_1324)">
<path d="M56.0144 36.102V8.7797C56.0144 7.80495 55.2242 7.01471 54.2495 7.01471H6.96161C5.98687 7.01471 5.19662 7.80495 5.19662 8.7797V38.2801C4.34519 38.4041 3.51282 38.7346 2.77647 39.2813C0.455155 40.9273 -0.0938738 44.611 1.85056 46.8828L9.80042 56.5204C14.7214 62.2798 19.949 62.9855 27.7204 62.9855C34.3893 62.9855 37.3709 63.0149 43.183 61.6906L48.8425 60.3369C49.7601 61.6184 51.217 62.4486 52.8548 62.4486H55.6427C58.4128 62.4486 60.6665 60.0744 60.6665 57.1562V41.3785C60.6666 38.592 58.6114 36.3032 56.0144 36.102ZM48.0812 39.7327L45.7295 38.5382C41.8629 36.5865 37.3924 36.5143 33.4647 38.3403C32.3931 38.7618 30.0559 40.1759 28.8436 40.1286H20.6832C17.9764 40.1286 15.7742 42.3307 15.7742 45.0376V46.3248C15.759 46.3088 15.7431 46.2936 15.7282 46.2774L9.90079 39.952C9.54815 39.5692 9.15197 39.249 8.72672 38.992V21.481H23.1706V27.951C23.1706 28.9258 23.9608 29.716 24.9356 29.716H36.0728C37.0475 29.716 37.8378 28.9258 37.8378 27.951V21.481H52.4846V36.1019C50.4224 36.2612 48.7028 37.7365 48.0812 39.7327ZM26.7004 21.481H34.3077V26.186H26.7004V21.481ZM52.4845 17.9511H37.8378V10.5447H52.4846V17.9511H52.4845ZM34.3078 10.5447V17.9512H26.7006V10.5447H34.3078ZM23.1705 10.5447V17.9512H8.7266V10.5447H23.1705ZM42.3638 58.2568C36.9947 59.4866 33.7611 59.4368 27.7837 59.4368C20.4884 59.4368 16.9635 59.3189 12.5237 54.2741L4.57382 44.6364C3.19101 42.8358 5.69565 40.7101 7.30461 42.3436L13.132 48.6691C14.6721 50.2941 16.6102 51.1885 18.999 51.2411H35.1554C36.1302 51.2411 36.9204 50.4509 36.9204 49.4761C36.9204 48.5014 36.1302 47.7111 35.1554 47.7111H19.3041V45.0374C19.3041 44.2771 19.9226 43.6584 20.6831 43.6584H28.8435C30.6819 43.79 33.3354 42.255 34.9528 41.5411C37.8945 40.1733 41.2428 40.2275 44.1349 41.6872L47.8312 43.5647V56.949L42.3638 58.2568ZM57.1366 57.1561C57.1366 58.1279 56.4665 58.9185 55.6428 58.9185H52.8549C52.0312 58.9185 51.3612 58.1279 51.3612 57.1561V41.3785C51.3612 40.4067 52.0313 39.616 52.8549 39.616H55.6428C56.4665 39.616 57.1366 40.4065 57.1366 41.3785V57.1561Z" fill="#242424"/>
</g>
<path d="M83.1665 10.55V13.375H75.8915V17.85H81.4665V20.625H75.8915V28H72.3915V10.55H83.1665ZM89.1483 16.3C89.5983 15.5667 90.1817 14.9917 90.8983 14.575C91.6317 14.1583 92.465 13.95 93.3983 13.95V17.625H92.4733C91.3733 17.625 90.54 17.8833 89.9733 18.4C89.4233 18.9167 89.1483 19.8167 89.1483 21.1V28H85.6483V14.15H89.1483V16.3ZM108.631 20.775C108.631 21.275 108.597 21.725 108.531 22.125H98.4058C98.4891 23.125 98.8391 23.9083 99.4558 24.475C100.072 25.0417 100.831 25.325 101.731 25.325C103.031 25.325 103.956 24.7667 104.506 23.65H108.281C107.881 24.9833 107.114 26.0833 105.981 26.95C104.847 27.8 103.456 28.225 101.806 28.225C100.472 28.225 99.2724 27.9333 98.2058 27.35C97.1558 26.75 96.3308 25.9083 95.7308 24.825C95.1474 23.7417 94.8558 22.4917 94.8558 21.075C94.8558 19.6417 95.1474 18.3833 95.7308 17.3C96.3141 16.2167 97.1308 15.3833 98.1808 14.8C99.2308 14.2167 100.439 13.925 101.806 13.925C103.122 13.925 104.297 14.2083 105.331 14.775C106.381 15.3417 107.189 16.15 107.756 17.2C108.339 18.2333 108.631 19.425 108.631 20.775ZM105.006 19.775C104.989 18.875 104.664 18.1583 104.031 17.625C103.397 17.075 102.622 16.8 101.706 16.8C100.839 16.8 100.106 17.0667 99.5058 17.6C98.9224 18.1167 98.5641 18.8417 98.4308 19.775H105.006ZM124.06 20.775C124.06 21.275 124.027 21.725 123.96 22.125H113.835C113.919 23.125 114.269 23.9083 114.885 24.475C115.502 25.0417 116.26 25.325 117.16 25.325C118.46 25.325 119.385 24.7667 119.935 23.65H123.71C123.31 24.9833 122.544 26.0833 121.41 26.95C120.277 27.8 118.885 28.225 117.235 28.225C115.902 28.225 114.702 27.9333 113.635 27.35C112.585 26.75 111.76 25.9083 111.16 24.825C110.577 23.7417 110.285 22.4917 110.285 21.075C110.285 19.6417 110.577 18.3833 111.16 17.3C111.744 16.2167 112.56 15.3833 113.61 14.8C114.66 14.2167 115.869 13.925 117.235 13.925C118.552 13.925 119.727 14.2083 120.76 14.775C121.81 15.3417 122.619 16.15 123.185 17.2C123.769 18.2333 124.06 19.425 124.06 20.775ZM120.435 19.775C120.419 18.875 120.094 18.1583 119.46 17.625C118.827 17.075 118.052 16.8 117.135 16.8C116.269 16.8 115.535 17.0667 114.935 17.6C114.352 18.1167 113.994 18.8417 113.86 19.775H120.435ZM138.597 28.175C137.381 28.175 136.281 27.9667 135.297 27.55C134.331 27.1333 133.564 26.5333 132.997 25.75C132.431 24.9667 132.139 24.0417 132.122 22.975H135.872C135.922 23.6917 136.172 24.2583 136.622 24.675C137.089 25.0917 137.722 25.3 138.522 25.3C139.339 25.3 139.981 25.1083 140.447 24.725C140.914 24.325 141.147 23.8083 141.147 23.175C141.147 22.6583 140.989 22.2333 140.672 21.9C140.356 21.5667 139.956 21.3083 139.472 21.125C139.006 20.925 138.356 20.7083 137.522 20.475C136.389 20.1417 135.464 19.8167 134.747 19.5C134.047 19.1667 133.439 18.675 132.922 18.025C132.422 17.3583 132.172 16.475 132.172 15.375C132.172 14.3417 132.431 13.4417 132.947 12.675C133.464 11.9083 134.189 11.325 135.122 10.925C136.056 10.5083 137.122 10.3 138.322 10.3C140.122 10.3 141.581 10.7417 142.697 11.625C143.831 12.4917 144.456 13.7083 144.572 15.275H140.722C140.689 14.675 140.431 14.1833 139.947 13.8C139.481 13.4 138.856 13.2 138.072 13.2C137.389 13.2 136.839 13.375 136.422 13.725C136.022 14.075 135.822 14.5833 135.822 15.25C135.822 15.7167 135.972 16.1083 136.272 16.425C136.589 16.725 136.972 16.975 137.422 17.175C137.889 17.3583 138.539 17.575 139.372 17.825C140.506 18.1583 141.431 18.4917 142.147 18.825C142.864 19.1583 143.481 19.6583 143.997 20.325C144.514 20.9917 144.772 21.8667 144.772 22.95C144.772 23.8833 144.531 24.75 144.047 25.55C143.564 26.35 142.856 26.9917 141.922 27.475C140.989 27.9417 139.881 28.175 138.597 28.175ZM155.607 13.95C156.657 13.95 157.59 14.1833 158.407 14.65C159.223 15.1 159.857 15.775 160.307 16.675C160.773 17.5583 161.007 18.625 161.007 19.875V28H157.507V20.35C157.507 19.25 157.232 18.4083 156.682 17.825C156.132 17.225 155.382 16.925 154.432 16.925C153.465 16.925 152.698 17.225 152.132 17.825C151.582 18.4083 151.307 19.25 151.307 20.35V28H147.807V9.5H151.307V15.875C151.757 15.275 152.357 14.8083 153.107 14.475C153.857 14.125 154.69 13.95 155.607 13.95ZM166.11 12.5C165.493 12.5 164.977 12.3083 164.56 11.925C164.16 11.525 163.96 11.0333 163.96 10.45C163.96 9.86667 164.16 9.38333 164.56 9C164.977 8.6 165.493 8.4 166.11 8.4C166.727 8.4 167.235 8.6 167.635 9C168.052 9.38333 168.26 9.86667 168.26 10.45C168.26 11.0333 168.052 11.525 167.635 11.925C167.235 12.3083 166.727 12.5 166.11 12.5ZM167.835 14.15V28H164.335V14.15H167.835ZM174.793 16.15C175.243 15.5167 175.86 14.9917 176.643 14.575C177.443 14.1417 178.351 13.925 179.368 13.925C180.551 13.925 181.618 14.2167 182.568 14.8C183.535 15.3833 184.293 16.2167 184.843 17.3C185.41 18.3667 185.693 19.6083 185.693 21.025C185.693 22.4417 185.41 23.7 184.843 24.8C184.293 25.8833 183.535 26.725 182.568 27.325C181.618 27.925 180.551 28.225 179.368 28.225C178.351 28.225 177.451 28.0167 176.668 27.6C175.901 27.1833 175.276 26.6583 174.793 26.025V34.6H171.293V14.15H174.793V16.15ZM182.118 21.025C182.118 20.1917 181.943 19.475 181.593 18.875C181.26 18.2583 180.81 17.7917 180.243 17.475C179.693 17.1583 179.093 17 178.443 17C177.81 17 177.21 17.1667 176.643 17.5C176.093 17.8167 175.643 18.2833 175.293 18.9C174.96 19.5167 174.793 20.2417 174.793 21.075C174.793 21.9083 174.96 22.6333 175.293 23.25C175.643 23.8667 176.093 24.3417 176.643 24.675C177.21 24.9917 177.81 25.15 178.443 25.15C179.093 25.15 179.693 24.9833 180.243 24.65C180.81 24.3167 181.26 23.8417 181.593 23.225C181.943 22.6083 182.118 21.875 182.118 21.025ZM191.736 16.15C192.186 15.5167 192.803 14.9917 193.586 14.575C194.386 14.1417 195.295 13.925 196.311 13.925C197.495 13.925 198.561 14.2167 199.511 14.8C200.478 15.3833 201.236 16.2167 201.786 17.3C202.353 18.3667 202.636 19.6083 202.636 21.025C202.636 22.4417 202.353 23.7 201.786 24.8C201.236 25.8833 200.478 26.725 199.511 27.325C198.561 27.925 197.495 28.225 196.311 28.225C195.295 28.225 194.395 28.0167 193.611 27.6C192.845 27.1833 192.22 26.6583 191.736 26.025V34.6H188.236V14.15H191.736V16.15ZM199.061 21.025C199.061 20.1917 198.886 19.475 198.536 18.875C198.203 18.2583 197.753 17.7917 197.186 17.475C196.636 17.1583 196.036 17 195.386 17C194.753 17 194.153 17.1667 193.586 17.5C193.036 17.8167 192.586 18.2833 192.236 18.9C191.903 19.5167 191.736 20.2417 191.736 21.075C191.736 21.9083 191.903 22.6333 192.236 23.25C192.586 23.8667 193.036 24.3417 193.586 24.675C194.153 24.9917 194.753 25.15 195.386 25.15C196.036 25.15 196.636 24.9833 197.186 24.65C197.753 24.3167 198.203 23.8417 198.536 23.225C198.886 22.6083 199.061 21.875 199.061 21.025ZM206.955 12.5C206.338 12.5 205.821 12.3083 205.405 11.925C205.005 11.525 204.805 11.0333 204.805 10.45C204.805 9.86667 205.005 9.38333 205.405 9C205.821 8.6 206.338 8.4 206.955 8.4C207.571 8.4 208.08 8.6 208.48 9C208.896 9.38333 209.105 9.86667 209.105 10.45C209.105 11.0333 208.896 11.525 208.48 11.925C208.08 12.3083 207.571 12.5 206.955 12.5ZM208.68 14.15V28H205.18V14.15H208.68ZM219.813 13.95C221.463 13.95 222.796 14.475 223.813 15.525C224.829 16.5583 225.338 18.0083 225.338 19.875V28H221.838V20.35C221.838 19.25 221.563 18.4083 221.013 17.825C220.463 17.225 219.713 16.925 218.763 16.925C217.796 16.925 217.029 17.225 216.463 17.825C215.913 18.4083 215.638 19.25 215.638 20.35V28H212.138V14.15H215.638V15.875C216.104 15.275 216.696 14.8083 217.413 14.475C218.146 14.125 218.946 13.95 219.813 13.95ZM234.091 13.925C235.124 13.925 236.033 14.1333 236.816 14.55C237.599 14.95 238.216 15.475 238.666 16.125V14.15H242.191V28.1C242.191 29.3833 241.933 30.525 241.416 31.525C240.899 32.5417 240.124 33.3417 239.091 33.925C238.058 34.525 236.808 34.825 235.341 34.825C233.374 34.825 231.758 34.3667 230.491 33.45C229.241 32.5333 228.533 31.2833 228.366 29.7H231.841C232.024 30.3333 232.416 30.8333 233.016 31.2C233.633 31.5833 234.374 31.775 235.241 31.775C236.258 31.775 237.083 31.4667 237.716 30.85C238.349 30.25 238.666 29.3333 238.666 28.1V25.95C238.216 26.6 237.591 27.1417 236.791 27.575C236.008 28.0083 235.108 28.225 234.091 28.225C232.924 28.225 231.858 27.925 230.891 27.325C229.924 26.725 229.158 25.8833 228.591 24.8C228.041 23.7 227.766 22.4417 227.766 21.025C227.766 19.625 228.041 18.3833 228.591 17.3C229.158 16.2167 229.916 15.3833 230.866 14.8C231.833 14.2167 232.908 13.925 234.091 13.925ZM238.666 21.075C238.666 20.225 238.499 19.5 238.166 18.9C237.833 18.2833 237.383 17.8167 236.816 17.5C236.249 17.1667 235.641 17 234.991 17C234.341 17 233.741 17.1583 233.191 17.475C232.641 17.7917 232.191 18.2583 231.841 18.875C231.508 19.475 231.341 20.1917 231.341 21.025C231.341 21.8583 231.508 22.5917 231.841 23.225C232.191 23.8417 232.641 24.3167 233.191 24.65C233.758 24.9833 234.358 25.15 234.991 25.15C235.641 25.15 236.249 24.9917 236.816 24.675C237.383 24.3417 237.833 23.875 238.166 23.275C238.499 22.6583 238.666 21.925 238.666 21.075Z" fill="#242424"/>
<path d="M78.5065 62.14C77.2132 62.14 76.0198 61.84 74.9265 61.24C73.8465 60.6267 72.9865 59.78 72.3465 58.7C71.7198 57.6067 71.4065 56.38 71.4065 55.02C71.4065 53.66 71.7198 52.44 72.3465 51.36C72.9865 50.28 73.8465 49.44 74.9265 48.84C76.0198 48.2267 77.2132 47.92 78.5065 47.92C79.8132 47.92 81.0065 48.2267 82.0865 48.84C83.1798 49.44 84.0398 50.28 84.6665 51.36C85.2932 52.44 85.6065 53.66 85.6065 55.02C85.6065 56.38 85.2932 57.6067 84.6665 58.7C84.0398 59.78 83.1798 60.6267 82.0865 61.24C81.0065 61.84 79.8132 62.14 78.5065 62.14ZM78.5065 60.16C79.4265 60.16 80.2465 59.9533 80.9665 59.54C81.6865 59.1133 82.2465 58.5133 82.6465 57.74C83.0598 56.9533 83.2665 56.0467 83.2665 55.02C83.2665 53.9933 83.0598 53.0933 82.6465 52.32C82.2465 51.5467 81.6865 50.9533 80.9665 50.54C80.2465 50.1267 79.4265 49.92 78.5065 49.92C77.5865 49.92 76.7665 50.1267 76.0465 50.54C75.3265 50.9533 74.7598 51.5467 74.3465 52.32C73.9465 53.0933 73.7465 53.9933 73.7465 55.02C73.7465 56.0467 73.9465 56.9533 74.3465 57.74C74.7598 58.5133 75.3265 59.1133 76.0465 59.54C76.7665 59.9533 77.5865 60.16 78.5065 60.16ZM90.1301 52.58C90.4634 52.02 90.9034 51.5867 91.4501 51.28C92.0101 50.96 92.6701 50.8 93.4301 50.8V53.16H92.8501C91.9568 53.16 91.2768 53.3867 90.8101 53.84C90.3568 54.2933 90.1301 55.08 90.1301 56.2V62H87.8501V50.98H90.1301V52.58ZM94.7659 56.44C94.7659 55.3333 94.9925 54.3533 95.4459 53.5C95.9125 52.6467 96.5392 51.9867 97.3259 51.52C98.1259 51.04 99.0125 50.8 99.9859 50.8C100.706 50.8 101.413 50.96 102.106 51.28C102.813 51.5867 103.373 52 103.786 52.52V47.2H106.086V62H103.786V60.34C103.413 60.8733 102.893 61.3133 102.226 61.66C101.573 62.0067 100.819 62.18 99.9659 62.18C99.0059 62.18 98.1259 61.94 97.3259 61.46C96.5392 60.9667 95.9125 60.2867 95.4459 59.42C94.9925 58.54 94.7659 57.5467 94.7659 56.44ZM103.786 56.48C103.786 55.72 103.626 55.06 103.306 54.5C102.999 53.94 102.593 53.5133 102.086 53.22C101.579 52.9267 101.033 52.78 100.446 52.78C99.8592 52.78 99.3125 52.9267 98.8059 53.22C98.2992 53.5 97.8859 53.92 97.5659 54.48C97.2592 55.0267 97.1059 55.68 97.1059 56.44C97.1059 57.2 97.2592 57.8667 97.5659 58.44C97.8859 59.0133 98.2992 59.4533 98.8059 59.76C99.3259 60.0533 99.8725 60.2 100.446 60.2C101.033 60.2 101.579 60.0533 102.086 59.76C102.593 59.4667 102.999 59.04 103.306 58.48C103.626 57.9067 103.786 57.24 103.786 56.48ZM119.181 56.22C119.181 56.6333 119.154 57.0067 119.101 57.34H110.681C110.747 58.22 111.074 58.9267 111.661 59.46C112.247 59.9933 112.967 60.26 113.821 60.26C115.047 60.26 115.914 59.7467 116.421 58.72H118.881C118.547 59.7333 117.941 60.5667 117.061 61.22C116.194 61.86 115.114 62.18 113.821 62.18C112.767 62.18 111.821 61.9467 110.981 61.48C110.154 61 109.501 60.3333 109.021 59.48C108.554 58.6133 108.321 57.6133 108.321 56.48C108.321 55.3467 108.547 54.3533 109.001 53.5C109.467 52.6333 110.114 51.9667 110.941 51.5C111.781 51.0333 112.741 50.8 113.821 50.8C114.861 50.8 115.787 51.0267 116.601 51.48C117.414 51.9333 118.047 52.5733 118.501 53.4C118.954 54.2133 119.181 55.1533 119.181 56.22ZM116.801 55.5C116.787 54.66 116.487 53.9867 115.901 53.48C115.314 52.9733 114.587 52.72 113.721 52.72C112.934 52.72 112.261 52.9733 111.701 53.48C111.141 53.9733 110.807 54.6467 110.701 55.5H116.801ZM123.704 52.58C124.038 52.02 124.478 51.5867 125.024 51.28C125.584 50.96 126.244 50.8 127.004 50.8V53.16H126.424C125.531 53.16 124.851 53.3867 124.384 53.84C123.931 54.2933 123.704 55.08 123.704 56.2V62H121.424V50.98H123.704V52.58ZM139.075 62.18C138.035 62.18 137.095 61.9467 136.255 61.48C135.415 61 134.755 60.3333 134.275 59.48C133.795 58.6133 133.555 57.6133 133.555 56.48C133.555 55.36 133.802 54.3667 134.295 53.5C134.789 52.6333 135.462 51.9667 136.315 51.5C137.169 51.0333 138.122 50.8 139.175 50.8C140.229 50.8 141.182 51.0333 142.035 51.5C142.889 51.9667 143.562 52.6333 144.055 53.5C144.549 54.3667 144.795 55.36 144.795 56.48C144.795 57.6 144.542 58.5933 144.035 59.46C143.529 60.3267 142.835 61 141.955 61.48C141.089 61.9467 140.129 62.18 139.075 62.18ZM139.075 60.2C139.662 60.2 140.209 60.06 140.715 59.78C141.235 59.5 141.655 59.08 141.975 58.52C142.295 57.96 142.455 57.28 142.455 56.48C142.455 55.68 142.302 55.0067 141.995 54.46C141.689 53.9 141.282 53.48 140.775 53.2C140.269 52.92 139.722 52.78 139.135 52.78C138.549 52.78 138.002 52.92 137.495 53.2C137.002 53.48 136.609 53.9 136.315 54.46C136.022 55.0067 135.875 55.68 135.875 56.48C135.875 57.6667 136.175 58.5867 136.775 59.24C137.389 59.88 138.155 60.2 139.075 60.2ZM151.309 59.96L154.429 50.98H156.849L152.649 62H149.929L145.749 50.98H148.189L151.309 59.96ZM168.673 56.22C168.673 56.6333 168.646 57.0067 168.593 57.34H160.173C160.239 58.22 160.566 58.9267 161.153 59.46C161.739 59.9933 162.459 60.26 163.313 60.26C164.539 60.26 165.406 59.7467 165.913 58.72H168.373C168.039 59.7333 167.433 60.5667 166.553 61.22C165.686 61.86 164.606 62.18 163.313 62.18C162.259 62.18 161.313 61.9467 160.473 61.48C159.646 61 158.993 60.3333 158.513 59.48C158.046 58.6133 157.813 57.6133 157.813 56.48C157.813 55.3467 158.039 54.3533 158.493 53.5C158.959 52.6333 159.606 51.9667 160.433 51.5C161.273 51.0333 162.233 50.8 163.313 50.8C164.353 50.8 165.279 51.0267 166.093 51.48C166.906 51.9333 167.539 52.5733 167.993 53.4C168.446 54.2133 168.673 55.1533 168.673 56.22ZM166.293 55.5C166.279 54.66 165.979 53.9867 165.393 53.48C164.806 52.9733 164.079 52.72 163.213 52.72C162.426 52.72 161.753 52.9733 161.193 53.48C160.633 53.9733 160.299 54.6467 160.193 55.5H166.293ZM173.197 52.58C173.53 52.02 173.97 51.5867 174.517 51.28C175.077 50.96 175.737 50.8 176.497 50.8V53.16H175.917C175.023 53.16 174.343 53.3867 173.877 53.84C173.423 54.2933 173.197 55.08 173.197 56.2V62H170.917V50.98H173.197V52.58ZM183.188 49.5V47.42H187.348V62H185.048V49.5H183.188ZM199.88 49.38H193.18V53.36C193.46 52.9867 193.873 52.6733 194.42 52.42C194.98 52.1667 195.573 52.04 196.2 52.04C197.32 52.04 198.226 52.28 198.92 52.76C199.626 53.24 200.126 53.8467 200.42 54.58C200.726 55.3133 200.88 56.0867 200.88 56.9C200.88 57.8867 200.686 58.7667 200.3 59.54C199.926 60.3 199.36 60.9 198.6 61.34C197.853 61.78 196.933 62 195.84 62C194.386 62 193.22 61.64 192.34 60.92C191.46 60.2 190.933 59.2467 190.76 58.06H192.98C193.126 58.6867 193.453 59.1867 193.96 59.56C194.466 59.92 195.1 60.1 195.86 60.1C196.806 60.1 197.513 59.8133 197.98 59.24C198.46 58.6667 198.7 57.9067 198.7 56.96C198.7 56 198.46 55.2667 197.98 54.76C197.5 54.24 196.793 53.98 195.86 53.98C195.206 53.98 194.653 54.1467 194.2 54.48C193.76 54.8 193.44 55.24 193.24 55.8H191.08V47.38H199.88V49.38ZM203.253 54.52C203.253 52.2133 203.64 50.4133 204.413 49.12C205.2 47.8133 206.547 47.16 208.453 47.16C210.36 47.16 211.7 47.8133 212.473 49.12C213.26 50.4133 213.653 52.2133 213.653 54.52C213.653 56.8533 213.26 58.68 212.473 60C211.7 61.3067 210.36 61.96 208.453 61.96C206.547 61.96 205.2 61.3067 204.413 60C203.64 58.68 203.253 56.8533 203.253 54.52ZM211.413 54.52C211.413 53.44 211.34 52.5267 211.193 51.78C211.06 51.0333 210.78 50.4267 210.353 49.96C209.927 49.48 209.293 49.24 208.453 49.24C207.613 49.24 206.98 49.48 206.553 49.96C206.127 50.4267 205.84 51.0333 205.693 51.78C205.56 52.5267 205.493 53.44 205.493 54.52C205.493 55.64 205.56 56.58 205.693 57.34C205.827 58.1 206.107 58.7133 206.533 59.18C206.973 59.6467 207.613 59.88 208.453 59.88C209.293 59.88 209.927 59.6467 210.353 59.18C210.793 58.7133 211.08 58.1 211.213 57.34C211.347 56.58 211.413 55.64 211.413 54.52ZM230.941 58.04C230.941 58.7067 230.774 59.3333 230.441 59.92C230.121 60.5067 229.641 61 229.001 61.4C228.374 61.8 227.628 62.04 226.761 62.12V63.74H225.461V62.12C224.208 62 223.194 61.6067 222.421 60.94C221.648 60.2733 221.261 59.3933 221.261 58.3H223.701C223.741 58.82 223.908 59.2533 224.201 59.6C224.494 59.9333 224.914 60.1467 225.461 60.24V55.84C224.568 55.6133 223.841 55.3867 223.281 55.16C222.721 54.92 222.241 54.5467 221.841 54.04C221.454 53.5333 221.261 52.84 221.261 51.96C221.261 50.8533 221.648 49.94 222.421 49.22C223.194 48.4867 224.208 48.06 225.461 47.94V46.32H226.761V47.94C227.934 48.0467 228.874 48.42 229.581 49.06C230.301 49.6867 230.708 50.5533 230.801 51.66H228.361C228.321 51.2467 228.161 50.88 227.881 50.56C227.601 50.2267 227.228 50 226.761 49.88V54.2C227.654 54.4133 228.381 54.64 228.941 54.88C229.501 55.1067 229.974 55.4733 230.361 55.98C230.748 56.4733 230.941 57.16 230.941 58.04ZM223.581 51.84C223.581 52.3867 223.741 52.8133 224.061 53.12C224.394 53.4267 224.861 53.6733 225.461 53.86V49.82C224.888 49.8867 224.428 50.0933 224.081 50.44C223.748 50.7867 223.581 51.2533 223.581 51.84ZM226.761 60.24C227.348 60.1467 227.808 59.9133 228.141 59.54C228.474 59.1533 228.641 58.6933 228.641 58.16C228.641 57.6267 228.474 57.2133 228.141 56.92C227.821 56.6133 227.361 56.3667 226.761 56.18V60.24Z" fill="#898989"/>
<defs>
<clipPath id="clip0_117_1324">
<rect width="60" height="60" fill="white" transform="translate(0.666504 5)"/>
</clipPath>
</defs>
</svg>
