<svg width="329" height="70" viewBox="0 0 329 70" fill="none" xmlns="http://www.w3.org/2000/svg">
<g clip-path="url(#clip0_117_1316)">
<path d="M57.1195 26.2612C56.3278 23.8096 56.6653 20.1296 54.6075 17.2881C52.5335 14.4243 48.9263 13.6103 46.8895 12.1206C44.8741 10.6467 42.9991 7.43912 39.609 6.33287C36.3145 5.25779 32.9456 6.71666 30.3335 6.71666C27.7217 6.71666 24.3531 5.25744 21.058 6.33275C17.6685 7.43877 15.7919 10.647 13.7778 12.1203C11.7432 13.6082 8.13338 14.4244 6.05975 17.2878C4.00369 20.1269 4.33779 23.8154 3.54748 26.2611C2.79537 28.5888 0.333496 31.3824 0.333496 35.0002C0.333496 38.6203 2.79256 41.4031 3.54748 43.7392C4.3392 46.1908 4.0017 49.8708 6.05951 52.7123C8.13338 55.5762 11.7404 56.3901 13.7775 57.8799C15.7925 59.3536 17.6679 62.5614 21.058 63.6676C24.3503 64.7419 27.7244 63.2838 30.3335 63.2838C32.9389 63.2838 36.321 64.7404 39.609 63.6677C42.9987 62.5617 44.874 59.3541 46.8892 57.8801C48.9238 56.3922 52.5336 55.576 54.6072 52.7126C56.6634 49.8734 56.3291 46.1853 57.1195 43.7394C57.8716 41.4115 60.3335 38.6179 60.3335 35.0002C60.3335 31.3804 57.875 28.5984 57.1195 26.2612ZM52.6592 42.2979C51.7364 45.1544 51.9781 48.3512 50.811 49.9629C49.6281 51.5962 46.5204 52.3422 44.1224 54.0963C41.7506 55.8308 40.0883 58.5803 38.1549 59.2111C36.3259 59.8081 33.3451 58.596 30.3336 58.596C27.3001 58.596 24.35 59.8107 22.5122 59.2111C20.579 58.5803 18.9191 55.8326 16.5447 54.0962C14.1609 52.3528 11.0355 51.5914 9.85604 49.9627C8.6926 48.3563 8.92521 45.1374 8.00799 42.2981C7.10893 39.5162 5.021 37.1074 5.021 35.0002C5.021 32.891 7.10705 30.4905 8.00775 27.7025C8.9306 24.8461 8.68885 21.6492 9.85604 20.0375C11.0382 18.4053 14.1483 17.6568 16.5447 15.9042C18.924 14.164 20.5759 11.421 22.5119 10.7893C24.3395 10.193 27.33 11.4044 30.3334 11.4044C33.3724 11.4044 36.3151 10.1889 38.1548 10.7893C40.0877 11.42 41.7491 14.1687 44.1224 15.9043C46.5058 17.6477 49.6315 18.409 50.811 20.0376C51.9746 21.6444 51.7407 24.86 52.659 27.7022V27.7024C53.5581 30.4843 55.646 32.8931 55.646 35.0002C55.646 37.1095 53.5599 39.5099 52.6592 42.2979ZM41.1315 27.4774C42.0469 28.3927 42.0469 29.8767 41.1315 30.7919L29.4003 42.5231C28.485 43.4384 27.0009 43.4383 26.0857 42.5231L19.5356 35.973C18.6203 35.0576 18.6201 33.5737 19.5355 32.6585C20.4508 31.7432 21.935 31.7431 22.85 32.6585L27.7429 37.5513L37.8167 27.4775C38.7321 26.5621 40.2162 26.5621 41.1315 27.4774Z" fill="#242424"/>
</g>
<path d="M95.3835 10.55L90.5085 28H86.3835L83.1085 15.575L79.6835 28L75.5835 28.025L70.8835 10.55H74.6335L77.7085 24.1L81.2585 10.55H85.1585L88.5085 24.025L91.6085 10.55H95.3835ZM96.7688 21.025C96.7688 19.625 97.0438 18.3833 97.5938 17.3C98.1605 16.2167 98.9188 15.3833 99.8688 14.8C100.836 14.2167 101.911 13.925 103.094 13.925C104.127 13.925 105.027 14.1333 105.794 14.55C106.577 14.9667 107.202 15.4917 107.669 16.125V14.15H111.194V28H107.669V25.975C107.219 26.625 106.594 27.1667 105.794 27.6C105.011 28.0167 104.102 28.225 103.069 28.225C101.902 28.225 100.836 27.925 99.8688 27.325C98.9188 26.725 98.1605 25.8833 97.5938 24.8C97.0438 23.7 96.7688 22.4417 96.7688 21.025ZM107.669 21.075C107.669 20.225 107.502 19.5 107.169 18.9C106.836 18.2833 106.386 17.8167 105.819 17.5C105.252 17.1667 104.644 17 103.994 17C103.344 17 102.744 17.1583 102.194 17.475C101.644 17.7917 101.194 18.2583 100.844 18.875C100.511 19.475 100.344 20.1917 100.344 21.025C100.344 21.8583 100.511 22.5917 100.844 23.225C101.194 23.8417 101.644 24.3167 102.194 24.65C102.761 24.9833 103.361 25.15 103.994 25.15C104.644 25.15 105.252 24.9917 105.819 24.675C106.386 24.3417 106.836 23.875 107.169 23.275C107.502 22.6583 107.669 21.925 107.669 21.075ZM118.112 16.3C118.562 15.5667 119.146 14.9917 119.862 14.575C120.596 14.1583 121.429 13.95 122.362 13.95V17.625H121.437C120.337 17.625 119.504 17.8833 118.937 18.4C118.387 18.9167 118.112 19.8167 118.112 21.1V28H114.612V14.15H118.112V16.3ZM128.22 16.3C128.67 15.5667 129.253 14.9917 129.97 14.575C130.703 14.1583 131.536 13.95 132.47 13.95V17.625H131.545C130.445 17.625 129.611 17.8833 129.045 18.4C128.495 18.9167 128.22 19.8167 128.22 21.1V28H124.72V14.15H128.22V16.3ZM133.927 21.025C133.927 19.625 134.202 18.3833 134.752 17.3C135.319 16.2167 136.077 15.3833 137.027 14.8C137.994 14.2167 139.069 13.925 140.252 13.925C141.285 13.925 142.185 14.1333 142.952 14.55C143.735 14.9667 144.36 15.4917 144.827 16.125V14.15H148.352V28H144.827V25.975C144.377 26.625 143.752 27.1667 142.952 27.6C142.169 28.0167 141.26 28.225 140.227 28.225C139.06 28.225 137.994 27.925 137.027 27.325C136.077 26.725 135.319 25.8833 134.752 24.8C134.202 23.7 133.927 22.4417 133.927 21.025ZM144.827 21.075C144.827 20.225 144.66 19.5 144.327 18.9C143.994 18.2833 143.544 17.8167 142.977 17.5C142.41 17.1667 141.802 17 141.152 17C140.502 17 139.902 17.1583 139.352 17.475C138.802 17.7917 138.352 18.2583 138.002 18.875C137.669 19.475 137.502 20.1917 137.502 21.025C137.502 21.8583 137.669 22.5917 138.002 23.225C138.352 23.8417 138.802 24.3167 139.352 24.65C139.919 24.9833 140.519 25.15 141.152 25.15C141.802 25.15 142.41 24.9917 142.977 24.675C143.544 24.3417 143.994 23.875 144.327 23.275C144.66 22.6583 144.827 21.925 144.827 21.075ZM159.445 13.95C161.095 13.95 162.429 14.475 163.445 15.525C164.462 16.5583 164.97 18.0083 164.97 19.875V28H161.47V20.35C161.47 19.25 161.195 18.4083 160.645 17.825C160.095 17.225 159.345 16.925 158.395 16.925C157.429 16.925 156.662 17.225 156.095 17.825C155.545 18.4083 155.27 19.25 155.27 20.35V28H151.77V14.15H155.27V15.875C155.737 15.275 156.329 14.8083 157.045 14.475C157.779 14.125 158.579 13.95 159.445 13.95ZM172.374 17.025V23.725C172.374 24.1917 172.482 24.5333 172.699 24.75C172.932 24.95 173.315 25.05 173.849 25.05H175.474V28H173.274C170.324 28 168.849 26.5667 168.849 23.7V17.025H167.199V14.15H168.849V10.725H172.374V14.15H175.474V17.025H172.374ZM191.241 14.15L182.666 34.55H178.941L181.941 27.65L176.391 14.15H180.316L183.891 23.825L187.516 14.15H191.241ZM211.81 15.95C211.81 16.8833 211.585 17.7583 211.135 18.575C210.702 19.3917 210.01 20.05 209.06 20.55C208.127 21.05 206.943 21.3 205.51 21.3H202.585V28H199.085V10.55H205.51C206.86 10.55 208.01 10.7833 208.96 11.25C209.91 11.7167 210.618 12.3583 211.085 13.175C211.568 13.9917 211.81 14.9167 211.81 15.95ZM205.36 18.475C206.327 18.475 207.043 18.2583 207.51 17.825C207.977 17.375 208.21 16.75 208.21 15.95C208.21 14.25 207.26 13.4 205.36 13.4H202.585V18.475H205.36ZM217.795 16.3C218.245 15.5667 218.828 14.9917 219.545 14.575C220.278 14.1583 221.111 13.95 222.045 13.95V17.625H221.12C220.02 17.625 219.186 17.8833 218.62 18.4C218.07 18.9167 217.795 19.8167 217.795 21.1V28H214.295V14.15H217.795V16.3ZM230.552 28.225C229.219 28.225 228.019 27.9333 226.952 27.35C225.886 26.75 225.044 25.9083 224.427 24.825C223.827 23.7417 223.527 22.4917 223.527 21.075C223.527 19.6583 223.836 18.4083 224.452 17.325C225.086 16.2417 225.944 15.4083 227.027 14.825C228.111 14.225 229.319 13.925 230.652 13.925C231.986 13.925 233.194 14.225 234.277 14.825C235.361 15.4083 236.211 16.2417 236.827 17.325C237.461 18.4083 237.777 19.6583 237.777 21.075C237.777 22.4917 237.452 23.7417 236.802 24.825C236.169 25.9083 235.302 26.75 234.202 27.35C233.119 27.9333 231.902 28.225 230.552 28.225ZM230.552 25.175C231.186 25.175 231.777 25.025 232.327 24.725C232.894 24.4083 233.344 23.9417 233.677 23.325C234.011 22.7083 234.177 21.9583 234.177 21.075C234.177 19.7583 233.827 18.75 233.127 18.05C232.444 17.3333 231.602 16.975 230.602 16.975C229.602 16.975 228.761 17.3333 228.077 18.05C227.411 18.75 227.077 19.7583 227.077 21.075C227.077 22.3917 227.402 23.4083 228.052 24.125C228.719 24.825 229.552 25.175 230.552 25.175ZM244.42 17.025V23.725C244.42 24.1917 244.528 24.5333 244.745 24.75C244.978 24.95 245.361 25.05 245.895 25.05H247.52V28H245.32C242.37 28 240.895 26.5667 240.895 23.7V17.025H239.245V14.15H240.895V10.725H244.42V14.15H247.52V17.025H244.42ZM262.912 20.775C262.912 21.275 262.879 21.725 262.812 22.125H252.687C252.77 23.125 253.12 23.9083 253.737 24.475C254.354 25.0417 255.112 25.325 256.012 25.325C257.312 25.325 258.237 24.7667 258.787 23.65H262.562C262.162 24.9833 261.395 26.0833 260.262 26.95C259.129 27.8 257.737 28.225 256.087 28.225C254.754 28.225 253.554 27.9333 252.487 27.35C251.437 26.75 250.612 25.9083 250.012 24.825C249.429 23.7417 249.137 22.4917 249.137 21.075C249.137 19.6417 249.429 18.3833 250.012 17.3C250.595 16.2167 251.412 15.3833 252.462 14.8C253.512 14.2167 254.72 13.925 256.087 13.925C257.404 13.925 258.579 14.2083 259.612 14.775C260.662 15.3417 261.47 16.15 262.037 17.2C262.62 18.2333 262.912 19.425 262.912 20.775ZM259.287 19.775C259.27 18.875 258.945 18.1583 258.312 17.625C257.679 17.075 256.904 16.8 255.987 16.8C255.12 16.8 254.387 17.0667 253.787 17.6C253.204 18.1167 252.845 18.8417 252.712 19.775H259.287ZM264.567 21.075C264.567 19.6417 264.858 18.3917 265.442 17.325C266.025 16.2417 266.833 15.4083 267.867 14.825C268.9 14.225 270.083 13.925 271.417 13.925C273.133 13.925 274.55 14.3583 275.667 15.225C276.8 16.075 277.558 17.275 277.942 18.825H274.167C273.967 18.225 273.625 17.7583 273.142 17.425C272.675 17.075 272.092 16.9 271.392 16.9C270.392 16.9 269.6 17.2667 269.017 18C268.433 18.7167 268.142 19.7417 268.142 21.075C268.142 22.3917 268.433 23.4167 269.017 24.15C269.6 24.8667 270.392 25.225 271.392 25.225C272.808 25.225 273.733 24.5917 274.167 23.325H277.942C277.558 24.825 276.8 26.0167 275.667 26.9C274.533 27.7833 273.117 28.225 271.417 28.225C270.083 28.225 268.9 27.9333 267.867 27.35C266.833 26.75 266.025 25.9167 265.442 24.85C264.858 23.7667 264.567 22.5083 264.567 21.075ZM284.581 17.025V23.725C284.581 24.1917 284.689 24.5333 284.906 24.75C285.139 24.95 285.522 25.05 286.056 25.05H287.681V28H285.481C282.531 28 281.056 26.5667 281.056 23.7V17.025H279.406V14.15H281.056V10.725H284.581V14.15H287.681V17.025H284.581ZM291.973 12.5C291.356 12.5 290.84 12.3083 290.423 11.925C290.023 11.525 289.823 11.0333 289.823 10.45C289.823 9.86667 290.023 9.38333 290.423 9C290.84 8.6 291.356 8.4 291.973 8.4C292.59 8.4 293.098 8.6 293.498 9C293.915 9.38333 294.123 9.86667 294.123 10.45C294.123 11.0333 293.915 11.525 293.498 11.925C293.098 12.3083 292.59 12.5 291.973 12.5ZM293.698 14.15V28H290.198V14.15H293.698ZM303.306 28.225C301.973 28.225 300.773 27.9333 299.706 27.35C298.639 26.75 297.798 25.9083 297.181 24.825C296.581 23.7417 296.281 22.4917 296.281 21.075C296.281 19.6583 296.589 18.4083 297.206 17.325C297.839 16.2417 298.698 15.4083 299.781 14.825C300.864 14.225 302.073 13.925 303.406 13.925C304.739 13.925 305.948 14.225 307.031 14.825C308.114 15.4083 308.964 16.2417 309.581 17.325C310.214 18.4083 310.531 19.6583 310.531 21.075C310.531 22.4917 310.206 23.7417 309.556 24.825C308.923 25.9083 308.056 26.75 306.956 27.35C305.873 27.9333 304.656 28.225 303.306 28.225ZM303.306 25.175C303.939 25.175 304.531 25.025 305.081 24.725C305.648 24.4083 306.098 23.9417 306.431 23.325C306.764 22.7083 306.931 21.9583 306.931 21.075C306.931 19.7583 306.581 18.75 305.881 18.05C305.198 17.3333 304.356 16.975 303.356 16.975C302.356 16.975 301.514 17.3333 300.831 18.05C300.164 18.75 299.831 19.7583 299.831 21.075C299.831 22.3917 300.156 23.4083 300.806 24.125C301.473 24.825 302.306 25.175 303.306 25.175ZM320.774 13.95C322.424 13.95 323.757 14.475 324.774 15.525C325.79 16.5583 326.299 18.0083 326.299 19.875V28H322.799V20.35C322.799 19.25 322.524 18.4083 321.974 17.825C321.424 17.225 320.674 16.925 319.724 16.925C318.757 16.925 317.99 17.225 317.424 17.825C316.874 18.4083 316.599 19.25 316.599 20.35V28H313.099V14.15H316.599V15.875C317.065 15.275 317.657 14.8083 318.374 14.475C319.107 14.125 319.907 13.95 320.774 13.95Z" fill="#242424"/>
<path d="M78.1735 62.14C76.8802 62.14 75.6868 61.84 74.5935 61.24C73.5135 60.6267 72.6535 59.78 72.0135 58.7C71.3868 57.6067 71.0735 56.38 71.0735 55.02C71.0735 53.66 71.3868 52.44 72.0135 51.36C72.6535 50.28 73.5135 49.44 74.5935 48.84C75.6868 48.2267 76.8802 47.92 78.1735 47.92C79.4802 47.92 80.6735 48.2267 81.7535 48.84C82.8468 49.44 83.7068 50.28 84.3335 51.36C84.9602 52.44 85.2735 53.66 85.2735 55.02C85.2735 56.38 84.9602 57.6067 84.3335 58.7C83.7068 59.78 82.8468 60.6267 81.7535 61.24C80.6735 61.84 79.4802 62.14 78.1735 62.14ZM78.1735 60.16C79.0935 60.16 79.9135 59.9533 80.6335 59.54C81.3535 59.1133 81.9135 58.5133 82.3135 57.74C82.7268 56.9533 82.9335 56.0467 82.9335 55.02C82.9335 53.9933 82.7268 53.0933 82.3135 52.32C81.9135 51.5467 81.3535 50.9533 80.6335 50.54C79.9135 50.1267 79.0935 49.92 78.1735 49.92C77.2535 49.92 76.4335 50.1267 75.7135 50.54C74.9935 50.9533 74.4268 51.5467 74.0135 52.32C73.6135 53.0933 73.4135 53.9933 73.4135 55.02C73.4135 56.0467 73.6135 56.9533 74.0135 57.74C74.4268 58.5133 74.9935 59.1133 75.7135 59.54C76.4335 59.9533 77.2535 60.16 78.1735 60.16ZM91.7771 59.96L94.8971 50.98H97.3171L93.1171 62H90.3971L86.2171 50.98H88.6571L91.7771 59.96ZM109.141 56.22C109.141 56.6333 109.114 57.0067 109.061 57.34H100.641C100.707 58.22 101.034 58.9267 101.621 59.46C102.207 59.9933 102.927 60.26 103.781 60.26C105.007 60.26 105.874 59.7467 106.381 58.72H108.841C108.507 59.7333 107.901 60.5667 107.021 61.22C106.154 61.86 105.074 62.18 103.781 62.18C102.727 62.18 101.781 61.9467 100.941 61.48C100.114 61 99.4605 60.3333 98.9805 59.48C98.5139 58.6133 98.2805 57.6133 98.2805 56.48C98.2805 55.3467 98.5072 54.3533 98.9605 53.5C99.4272 52.6333 100.074 51.9667 100.901 51.5C101.741 51.0333 102.701 50.8 103.781 50.8C104.821 50.8 105.747 51.0267 106.561 51.48C107.374 51.9333 108.007 52.5733 108.461 53.4C108.914 54.2133 109.141 55.1533 109.141 56.22ZM106.761 55.5C106.747 54.66 106.447 53.9867 105.861 53.48C105.274 52.9733 104.547 52.72 103.681 52.72C102.894 52.72 102.221 52.9733 101.661 53.48C101.101 53.9733 100.767 54.6467 100.661 55.5H106.761ZM113.664 52.58C113.998 52.02 114.438 51.5867 114.984 51.28C115.544 50.96 116.204 50.8 116.964 50.8V53.16H116.384C115.491 53.16 114.811 53.3867 114.344 53.84C113.891 54.2933 113.664 55.08 113.664 56.2V62H111.384V50.98H113.664V52.58ZM125.215 58.9C126.495 57.7933 127.502 56.8867 128.235 56.18C128.982 55.46 129.602 54.7133 130.095 53.94C130.589 53.1667 130.835 52.3933 130.835 51.62C130.835 50.82 130.642 50.1933 130.255 49.74C129.882 49.2867 129.289 49.06 128.475 49.06C127.689 49.06 127.075 49.3133 126.635 49.82C126.209 50.3133 125.982 50.98 125.955 51.82H123.755C123.795 50.3 124.249 49.14 125.115 48.34C125.995 47.5267 127.109 47.12 128.455 47.12C129.909 47.12 131.042 47.52 131.855 48.32C132.682 49.12 133.095 50.1867 133.095 51.52C133.095 52.48 132.849 53.4067 132.355 54.3C131.875 55.18 131.295 55.9733 130.615 56.68C129.949 57.3733 129.095 58.18 128.055 59.1L127.155 59.9H133.495V61.8H123.775V60.14L125.215 58.9ZM150.914 50.98L144.154 67.18H141.794L144.034 61.82L139.694 50.98H142.234L145.334 59.38L148.554 50.98H150.914ZM162.734 56.22C162.734 56.6333 162.708 57.0067 162.654 57.34H154.234C154.301 58.22 154.628 58.9267 155.214 59.46C155.801 59.9933 156.521 60.26 157.374 60.26C158.601 60.26 159.468 59.7467 159.974 58.72H162.434C162.101 59.7333 161.494 60.5667 160.614 61.22C159.748 61.86 158.668 62.18 157.374 62.18C156.321 62.18 155.374 61.9467 154.534 61.48C153.708 61 153.054 60.3333 152.574 59.48C152.108 58.6133 151.874 57.6133 151.874 56.48C151.874 55.3467 152.101 54.3533 152.554 53.5C153.021 52.6333 153.668 51.9667 154.494 51.5C155.334 51.0333 156.294 50.8 157.374 50.8C158.414 50.8 159.341 51.0267 160.154 51.48C160.968 51.9333 161.601 52.5733 162.054 53.4C162.508 54.2133 162.734 55.1533 162.734 56.22ZM160.354 55.5C160.341 54.66 160.041 53.9867 159.454 53.48C158.868 52.9733 158.141 52.72 157.274 52.72C156.488 52.72 155.814 52.9733 155.254 53.48C154.694 53.9733 154.361 54.6467 154.254 55.5H160.354ZM164.218 56.44C164.218 55.3333 164.445 54.3533 164.898 53.5C165.365 52.6467 165.991 51.9867 166.778 51.52C167.578 51.04 168.458 50.8 169.418 50.8C170.285 50.8 171.038 50.9733 171.678 51.32C172.331 51.6533 172.851 52.0733 173.238 52.58V50.98H175.538V62H173.238V60.36C172.851 60.88 172.325 61.3133 171.658 61.66C170.991 62.0067 170.231 62.18 169.378 62.18C168.431 62.18 167.565 61.94 166.778 61.46C165.991 60.9667 165.365 60.2867 164.898 59.42C164.445 58.54 164.218 57.5467 164.218 56.44ZM173.238 56.48C173.238 55.72 173.078 55.06 172.758 54.5C172.451 53.94 172.045 53.5133 171.538 53.22C171.031 52.9267 170.485 52.78 169.898 52.78C169.311 52.78 168.765 52.9267 168.258 53.22C167.751 53.5 167.338 53.92 167.018 54.48C166.711 55.0267 166.558 55.68 166.558 56.44C166.558 57.2 166.711 57.8667 167.018 58.44C167.338 59.0133 167.751 59.4533 168.258 59.76C168.778 60.0533 169.325 60.2 169.898 60.2C170.485 60.2 171.031 60.0533 171.538 59.76C172.045 59.4667 172.451 59.04 172.758 58.48C173.078 57.9067 173.238 57.24 173.238 56.48ZM180.813 52.58C181.146 52.02 181.586 51.5867 182.133 51.28C182.693 50.96 183.353 50.8 184.113 50.8V53.16H183.533C182.639 53.16 181.959 53.3867 181.493 53.84C181.039 54.2933 180.813 55.08 180.813 56.2V62H178.533V50.98H180.813V52.58ZM190.208 62.18C189.342 62.18 188.562 62.0267 187.868 61.72C187.188 61.4 186.648 60.9733 186.248 60.44C185.848 59.8933 185.635 59.2867 185.608 58.62H187.968C188.008 59.0867 188.228 59.48 188.628 59.8C189.042 60.1067 189.555 60.26 190.168 60.26C190.808 60.26 191.302 60.14 191.648 59.9C192.008 59.6467 192.188 59.3267 192.188 58.94C192.188 58.5267 191.988 58.22 191.588 58.02C191.202 57.82 190.582 57.6 189.728 57.36C188.902 57.1333 188.228 56.9133 187.708 56.7C187.188 56.4867 186.735 56.16 186.348 55.72C185.975 55.28 185.788 54.7 185.788 53.98C185.788 53.3933 185.962 52.86 186.308 52.38C186.655 51.8867 187.148 51.5 187.788 51.22C188.442 50.94 189.188 50.8 190.028 50.8C191.282 50.8 192.288 51.12 193.048 51.76C193.822 52.3867 194.235 53.2467 194.288 54.34H192.008C191.968 53.8467 191.768 53.4533 191.408 53.16C191.048 52.8667 190.562 52.72 189.948 52.72C189.348 52.72 188.888 52.8333 188.568 53.06C188.248 53.2867 188.088 53.5867 188.088 53.96C188.088 54.2533 188.195 54.5 188.408 54.7C188.622 54.9 188.882 55.06 189.188 55.18C189.495 55.2867 189.948 55.4267 190.548 55.6C191.348 55.8133 192.002 56.0333 192.508 56.26C193.028 56.4733 193.475 56.7933 193.848 57.22C194.222 57.6467 194.415 58.2133 194.428 58.92C194.428 59.5467 194.255 60.1067 193.908 60.6C193.562 61.0933 193.068 61.48 192.428 61.76C191.802 62.04 191.062 62.18 190.208 62.18Z" fill="#898989"/>
<defs>
<clipPath id="clip0_117_1316">
<rect width="60" height="60" fill="white" transform="translate(0.333496 5)"/>
</clipPath>
</defs>
</svg>
